<?xml version="1.0" encoding="UTF-8"?>
<svg width="1356px" height="146px" viewBox="0 0 1356 146" version="1.1" xmlns="http://www.w3.org/2000/svg" xmlns:xlink="http://www.w3.org/1999/xlink">
    <!-- Generator: Sketch 48.2 (47327) - http://www.bohemiancoding.com/sketch -->
    <title>LHH-Logo-2018-OneLine-Small</title>
    <desc>Created with Sketch.</desc>
    <defs></defs>
    <g id="LHH-Logo-2018-OneLine-Small" stroke="none" stroke-width="1" fill="none" fill-rule="evenodd" transform="translate(-94.000000, -70.000000)">
        <g transform="translate(94.000000, 70.000000)" fill="#05164D">
            <g id="LH_bildwortmarke_small_beta_V02">
                <path d="M345.909,89.055 C345.909,98.087 341.325,102.131 333.911,102.131 C325.688,102.131 321.779,98.087 321.779,89.055 L321.779,50.232 L301.423,50.232 L301.423,89.999 C301.423,112.376 310.455,120.195 327.845,120.195 C338.494,120.195 344.291,115.612 347.122,110.354 L347.122,118.173 L366.264,118.173 L366.264,50.232 L345.909,50.232 L345.909,89.055" id="Fill-1"></path>
                <path d="M381.902,47.67 L381.902,50.232 L371.656,50.232 L371.656,66.813 L381.902,66.813 L381.902,118.173 L402.257,118.173 L402.257,66.813 L417.22,66.813 L417.22,50.232 L402.257,50.232 L402.257,47.535 C402.257,41.604 405.627,39.447 411.963,39.447 C414.389,39.447 417.22,39.717 417.22,39.717 L417.22,23.271 C417.22,23.271 413.85,22.462 408.593,22.462 C392.282,22.462 381.902,31.224 381.902,47.67" id="Fill-2"></path>
                <path d="M82.499,53.914 C76.264,67.711 66.296,73.487 57.882,73.377 C50.057,73.274 42.151,68.151 35.848,64.672 L37.786,63.221 L51.588,69.16 L53.975,67.272 L26.085,54.799 L22.505,57.558 L12.518,53.441 L12.76,57.578 C25.823,63.507 31.538,66.83 46.021,77.06 C59.78,86.247 71.946,93.05 86.361,97.226 C92.536,99.226 99.751,100.797 103.577,101.733 L108.961,96.488 C93.459,96.433 78.031,90.62 71.198,82.557 C81.024,76.337 94.91,75.781 108.624,77.141 L111.912,74.084 C102.771,73.078 91.703,72.638 84.316,72.984 C85.363,71.964 86.262,70.943 87.014,69.919 C94.989,69.728 105.912,70.019 114.903,71.17 L118.194,67.965 C109.202,66.814 99.169,66.239 89.867,66.265 C90.768,65.096 91.223,64.216 91.825,63.338 C99.505,63.143 112.193,63.9 121.185,65.051 L124.326,61.991 C115.486,60.547 101.618,59.627 93.79,59.82 C94.392,58.942 94.849,57.914 95.303,57.034 C103.58,56.404 118.473,57.928 127.018,59.369 L130.308,56.164 C114.551,53.004 93.448,52.138 82.499,53.914" id="Fill-3"></path>
                <polyline id="Fill-4" points="256.263 23.81 234.425 23.81 234.425 118.173 296.839 118.173 296.839 99.166 256.263 99.166 256.263 23.81"></polyline>
                <path d="M71.981,0.179 C32.86,-0.333 0.707,30.843 0.195,69.964 C-0.317,109.084 31.005,141.387 70.125,141.899 C109.246,142.411 141.403,110.939 141.915,71.819 C142.427,32.698 111.101,0.691 71.981,0.179 Z M70.179,137.765 C33.568,137.286 3.993,106.926 4.476,70.02 C4.957,33.261 35.317,3.685 71.928,4.165 C108.687,4.646 138.263,35.006 137.781,71.765 C137.298,108.671 106.938,138.247 70.179,137.765 Z" id="Fill-5"></path>
                <path d="M453.077,30.415 L432.722,30.415 L432.722,50.232 L422.476,50.232 L422.476,66.813 L432.722,66.813 L432.722,95.526 C432.722,111.972 442.562,119.386 458.874,119.386 C463.862,119.386 468.58,118.308 468.58,118.308 L468.58,101.997 C468.58,101.997 465.21,102.401 462.783,102.401 C456.852,102.401 453.077,100.513 453.077,93.234 L453.077,66.813 L468.58,66.813 L468.58,50.232 L453.077,50.232 L453.077,30.415" id="Fill-6"></path>
                <path d="M727.886,75.575 L720.742,74.631 C714.945,73.823 713.328,72.205 713.328,69.239 C713.328,66.274 715.889,63.982 722.629,63.982 C729.504,63.982 731.661,66.408 732.335,70.318 L752.151,70.318 C751.208,55.624 741.232,48.21 722.629,48.21 C702.543,48.21 692.972,57.781 692.972,70.722 C692.972,84.202 701.599,89.999 716.563,92.021 L723.707,92.965 C730.717,93.908 733.414,95.526 733.414,99.031 C733.414,102.805 730.178,104.693 722.224,104.693 C714.406,104.693 710.901,102.266 710.362,97.278 L690.276,97.278 C690.681,110.894 698.903,120.195 722.224,120.195 C743.658,120.195 753.769,111.702 753.769,97.413 C753.769,83.259 745.141,77.867 727.886,75.575" id="Fill-7"></path>
                <path d="M793.4,48.21 C773.314,48.21 763.608,55.894 762.799,70.318 L782.616,70.318 C782.885,66.543 785.042,63.712 793.4,63.712 C800.814,63.712 804.319,66.139 804.319,69.778 C804.319,73.014 802.297,74.227 797.309,74.766 L784.368,76.114 C766.843,78.001 758.89,85.281 758.89,98.492 C758.89,110.759 766.439,120.195 782.481,120.195 C793.4,120.195 799.871,116.69 805.532,109.68 L805.532,118.173 L824.135,118.173 L824.135,73.553 C824.135,54.815 813.216,48.21 793.4,48.21 Z M804.724,91.751 C804.724,99.166 797.713,104.693 786.929,104.693 C781.672,104.693 778.571,102.266 778.571,97.683 C778.571,94.178 780.728,91.212 787.603,90.269 L799.331,88.651 C801.353,88.381 803.51,87.977 804.724,87.572 L804.724,91.751 Z" id="Fill-8"></path>
                <path d="M580.51,48.209 C560.424,48.209 550.718,55.893 549.909,70.317 L569.726,70.317 C569.995,66.543 572.152,63.712 580.51,63.712 C587.924,63.712 591.429,66.138 591.429,69.778 C591.429,73.013 589.407,74.227 584.419,74.766 L571.478,76.114 C553.954,78.001 546,85.281 546,98.492 C546,110.759 553.549,120.195 569.591,120.195 C580.51,120.195 586.981,116.69 592.643,109.68 L592.643,118.173 L611.246,118.173 L611.246,73.553 C611.246,54.815 600.326,48.209 580.51,48.209 Z M591.834,91.751 C591.834,99.166 584.824,104.693 574.039,104.693 C568.782,104.693 565.682,102.266 565.682,97.683 C565.682,94.178 567.839,91.212 574.714,90.268 L586.441,88.651 C588.464,88.381 590.621,87.977 591.834,87.572 L591.834,91.751 Z" id="Fill-9"></path>
                <path d="M658.315,48.209 C647.395,48.209 641.599,52.793 638.768,58.05 L638.768,50.232 L619.625,50.232 L619.625,118.173 L639.981,118.173 L639.981,79.349 C639.981,70.317 644.564,66.273 652.248,66.273 C660.741,66.273 664.65,70.317 664.65,79.349 L664.65,118.173 L685.006,118.173 L685.006,78.405 C685.006,56.028 675.974,48.209 658.315,48.209" id="Fill-10"></path>
                <path d="M513.647,48.209 C504.076,48.209 498.549,51.849 495.044,56.837 L495.044,23.945 L474.554,23.945 L474.554,118.173 L494.909,118.173 L494.909,79.349 C494.909,70.317 499.493,66.273 507.177,66.273 C515.669,66.273 519.579,70.317 519.579,79.349 L519.579,118.173 L539.934,118.173 L539.934,78.405 C539.934,56.028 530.902,48.209 513.647,48.209" id="Fill-11"></path>
            </g>
            <path d="M896.782025,67.0761055 L955.742172,67.0761055 L955.742172,25 L965.524197,25 L965.524197,118.800235 L955.742172,118.800235 L955.742172,76.1881284 L896.782025,76.1881284 L896.782025,118.800235 L887,118.800235 L887,25 L896.782025,25 L896.782025,67.0761055 Z M978.755489,86.7741549 C978.755489,66.0041028 989.475516,53.1400706 1010.78157,53.1400706 C1032.08762,53.1400706 1042.94165,66.0041028 1042.94165,86.7741549 C1042.94165,107.544207 1032.08762,120.408239 1010.78157,120.408239 C989.475516,120.408239 978.755489,107.544207 978.755489,86.7741549 Z M988.403514,86.7741549 C988.403514,102.586195 995.505531,111.832218 1010.78157,111.832218 C1026.05761,111.832218 1033.29363,102.586195 1033.29363,86.7741549 C1033.29363,70.9621153 1026.05761,61.7160921 1010.78157,61.7160921 C995.505531,61.7160921 988.403514,70.9621153 988.403514,86.7741549 Z M1058.98695,118.800235 C1056.17294,118.800235 1054.56494,117.192231 1054.56494,114.378224 L1054.56494,25 L1063.94496,25 L1063.94496,118.800235 L1058.98695,118.800235 Z M1078.51626,39.338036 L1078.51626,27.6800067 L1089.50429,27.6800067 L1089.50429,39.338036 L1078.51626,39.338036 Z M1079.32026,118.800235 L1079.32026,54.7480746 L1088.70028,54.7480746 L1088.70028,118.800235 L1079.32026,118.800235 Z M1154.72771,25 L1164.10773,25 L1164.10773,118.800235 L1154.99571,118.800235 L1154.99571,109.822213 C1150.5737,116.924231 1142.66768,120.408239 1132.08165,120.408239 C1110.9096,120.408239 1100.45757,107.812208 1100.45757,86.9081553 C1100.45757,65.8701025 1110.9096,53.1400706 1132.08165,53.1400706 C1142.39968,53.1400706 1150.1717,56.490079 1154.72771,63.3240961 L1154.72771,25 Z M1132.61765,111.832218 C1147.75969,111.832218 1154.99571,102.720195 1154.99571,86.9081553 C1154.99571,70.9621153 1147.75969,61.7160921 1132.61765,61.7160921 C1117.47562,61.7160921 1110.1056,70.9621153 1110.1056,86.9081553 C1110.1056,102.720195 1117.47562,111.832218 1132.61765,111.832218 Z M1220.75513,118.800235 L1220.75513,110.760215 C1215.79712,117.058231 1207.2211,120.408239 1197.57308,120.408239 C1181.35903,120.408239 1174.92702,111.430217 1174.92702,100.978191 C1174.92702,89.4541617 1181.49304,83.1561459 1195.83107,81.5481418 L1212.98311,79.6721371 C1218.74513,79.0021354 1220.62113,76.8581301 1220.62113,71.9001176 C1220.62113,66.0041028 1216.19912,61.7160921 1204.00509,61.7160921 C1192.88306,61.7160921 1188.59505,65.6021018 1187.79105,71.9001176 L1178.81303,71.9001176 C1179.48303,61.4480914 1186.58505,53.1400706 1204.00509,53.1400706 C1222.49714,53.1400706 1229.86716,61.0460904 1229.86716,72.9721203 L1229.86716,118.800235 L1220.75513,118.800235 Z M1220.62113,85.9701529 C1218.87913,86.6401546 1215.79712,87.3101563 1212.44711,87.7121573 L1198.24308,89.186161 C1188.86305,90.1241633 1184.30704,93.8761728 1184.30704,100.57619 C1184.30704,107.678207 1188.46105,111.832218 1199.44908,111.832218 C1210.70511,111.832218 1220.62113,106.070203 1220.62113,94.4121741 L1220.62113,85.9701529 Z M1246.04646,54.7480746 L1268.55851,104.998201 L1289.59657,54.7480746 L1299.78059,54.7480746 L1260.78649,145.868303 L1250.60247,145.868303 L1263.8685,115.852228 L1235.86243,54.7480746 L1246.04646,54.7480746 Z M1354.01599,71.9001176 L1345.03796,71.9001176 C1343.42996,64.9321002 1339.14195,61.7160921 1328.82392,61.7160921 C1317.29989,61.7160921 1313.14588,65.6021018 1313.14588,71.7661173 C1313.14588,76.5901294 1315.82589,78.7341348 1322.52591,79.8061375 L1336.32794,81.9501428 C1349.05797,83.9601479 1355.48999,89.588162 1355.48999,100.308189 C1355.48999,112.90422 1346.51197,120.408239 1328.42192,120.408239 C1308.32187,120.408239 1301.88986,111.430217 1300.95185,100.040188 L1309.92988,100.040188 C1311.26988,108.348209 1315.82589,111.832218 1328.42192,111.832218 C1341.15195,111.832218 1345.84197,107.544207 1345.84197,100.978191 C1345.84197,95.2161761 1342.89396,92.4021691 1334.85394,91.196166 L1320.7839,89.0521607 C1309.25987,87.3101563 1303.49786,81.8161425 1303.49786,72.3021186 C1303.49786,61.3140911 1311.40388,53.1400706 1328.82392,53.1400706 C1345.03796,53.1400706 1352.54198,60.7780897 1354.01599,71.9001176 Z" id="Holidays"></path>
        </g>
    </g>
</svg>